<svg xmlns="http://www.w3.org/2000/svg" viewBox="0 0 200 100" preserveAspectRatio="xMidYMid slice">

<rect width="200" height="100" fill="#5b6b3a"></rect>


<rect x="14" y="10" width="172" height="82" fill="#f8f4ea"></rect>
<rect x="14" y="10" width="172" height="4" fill="#3e4a26"></rect>

<g fill="#5b6b3a">
  <rect x="14" y="90" width="4" height="2"></rect>
  <rect x="22" y="90" width="4" height="2"></rect>
  <rect x="30" y="90" width="4" height="2"></rect>
  <rect x="38" y="90" width="4" height="2"></rect>
  <rect x="46" y="90" width="4" height="2"></rect>
  <rect x="54" y="90" width="4" height="2"></rect>
  <rect x="62" y="90" width="4" height="2"></rect>
  <rect x="70" y="90" width="4" height="2"></rect>
  <rect x="78" y="90" width="4" height="2"></rect>
  <rect x="86" y="90" width="4" height="2"></rect>
  <rect x="94" y="90" width="4" height="2"></rect>
  <rect x="102" y="90" width="4" height="2"></rect>
  <rect x="110" y="90" width="4" height="2"></rect>
  <rect x="118" y="90" width="4" height="2"></rect>
  <rect x="126" y="90" width="4" height="2"></rect>
  <rect x="134" y="90" width="4" height="2"></rect>
  <rect x="142" y="90" width="4" height="2"></rect>
  <rect x="150" y="90" width="4" height="2"></rect>
  <rect x="158" y="90" width="4" height="2"></rect>
  <rect x="166" y="90" width="4" height="2"></rect>
  <rect x="174" y="90" width="4" height="2"></rect>
  <rect x="182" y="90" width="4" height="2"></rect>
</g>


<rect x="20" y="18" width="14" height="14" fill="#3e4a26"></rect>
<rect x="26" y="20" width="2" height="10" fill="#f8f4ea"></rect>
<rect x="22" y="22" width="10" height="2" fill="#f8f4ea"></rect>
<rect x="22" y="26" width="10" height="2" fill="#f8f4ea"></rect>

<rect x="40" y="20" width="60" height="3" fill="#1d1a15"></rect>
<rect x="40" y="26" width="44" height="2" fill="#3a342b" opacity="0.6"></rect>

<rect x="130" y="18" width="50" height="14" fill="#3e4a26"></rect>
<rect x="134" y="22" width="3" height="6" fill="#f8f4ea"></rect>
<rect x="139" y="22" width="3" height="6" fill="#f8f4ea"></rect>
<rect x="144" y="22" width="3" height="6" fill="#f8f4ea"></rect>
<rect x="149" y="22" width="6" height="6" fill="#f8f4ea"></rect>
<rect x="157" y="22" width="2" height="6" fill="#f8f4ea"></rect>
<rect x="161" y="22" width="3" height="6" fill="#f8f4ea"></rect>
<rect x="166" y="22" width="3" height="6" fill="#f8f4ea"></rect>
<rect x="171" y="22" width="3" height="6" fill="#f8f4ea"></rect>
<rect x="176" y="22" width="3" height="6" fill="#f8f4ea"></rect>


<rect x="20" y="38" width="160" height="1" fill="#3a342b" opacity="0.4"></rect>


<rect x="20" y="80" width="160" height="1" fill="#3a342b"></rect>



<rect x="26" y="52" width="14" height="28" fill="#3e4a26"></rect>
<rect x="26" y="52" width="14" height="3" fill="#5b6b3a"></rect>

<rect x="44" y="44" width="14" height="36" fill="#3e4a26"></rect>
<rect x="44" y="44" width="14" height="3" fill="#5b6b3a"></rect>

<rect x="62" y="60" width="14" height="20" fill="#c88733"></rect>
<rect x="62" y="60" width="14" height="3" fill="#e8a14a"></rect>

<rect x="80" y="48" width="14" height="32" fill="#3e4a26"></rect>
<rect x="80" y="48" width="14" height="3" fill="#5b6b3a"></rect>

<rect x="98" y="56" width="14" height="24" fill="#3e4a26"></rect>
<rect x="98" y="56" width="14" height="3" fill="#5b6b3a"></rect>

<rect x="116" y="40" width="14" height="40" fill="#3e4a26"></rect>
<rect x="116" y="40" width="14" height="3" fill="#5b6b3a"></rect>

<rect x="134" y="62" width="14" height="18" fill="#b8432b"></rect>
<rect x="134" y="62" width="14" height="3" fill="#8f2f1d"></rect>

<rect x="152" y="50" width="14" height="30" fill="#3e4a26"></rect>
<rect x="152" y="50" width="14" height="3" fill="#5b6b3a"></rect>


<g fill="#1d1a15">
  <rect x="22" y="51" width="4" height="1"></rect>
  <rect x="30" y="51" width="4" height="1"></rect>
  <rect x="38" y="51" width="4" height="1"></rect>
  <rect x="46" y="51" width="4" height="1"></rect>
  <rect x="54" y="51" width="4" height="1"></rect>
  <rect x="62" y="51" width="4" height="1"></rect>
  <rect x="70" y="51" width="4" height="1"></rect>
  <rect x="78" y="51" width="4" height="1"></rect>
  <rect x="86" y="51" width="4" height="1"></rect>
  <rect x="94" y="51" width="4" height="1"></rect>
  <rect x="102" y="51" width="4" height="1"></rect>
  <rect x="110" y="51" width="4" height="1"></rect>
  <rect x="118" y="51" width="4" height="1"></rect>
  <rect x="126" y="51" width="4" height="1"></rect>
  <rect x="134" y="51" width="4" height="1"></rect>
  <rect x="142" y="51" width="4" height="1"></rect>
  <rect x="150" y="51" width="4" height="1"></rect>
  <rect x="158" y="51" width="4" height="1"></rect>
  <rect x="166" y="51" width="4" height="1"></rect>
  <rect x="174" y="51" width="4" height="1"></rect>
</g>

<rect x="178" y="48" width="8" height="6" fill="#1d1a15"></rect>
<rect x="180" y="50" width="1" height="2" fill="#f8f4ea"></rect>
<rect x="182" y="50" width="1" height="2" fill="#f8f4ea"></rect>
<rect x="184" y="50" width="1" height="2" fill="#f8f4ea"></rect>


<g fill="#3a342b" opacity="0.6">
  <rect x="28" y="84" width="10" height="1.5"></rect>
  <rect x="46" y="84" width="10" height="1.5"></rect>
  <rect x="64" y="84" width="10" height="1.5"></rect>
  <rect x="82" y="84" width="10" height="1.5"></rect>
  <rect x="100" y="84" width="10" height="1.5"></rect>
  <rect x="118" y="84" width="10" height="1.5"></rect>
  <rect x="136" y="84" width="10" height="1.5"></rect>
  <rect x="154" y="84" width="10" height="1.5"></rect>
</g>
</svg>